# xmcd
#
# Track frame offsets:
#	150
#	14505
#	28635
#	41397
#	54793
#	67491
#	81955
#	96282
#	109050
#	122467
#	135238
#	146956
#	160122
#
# Disc length: 2319
#
# Revision: 2
# Processed by: cddbd v1.5.1PL0 Copyright (c) Steve Scherf et al.
# Submitted via: audiograbber 1.82.02
# Normalized: r1:DSETVAR1
#
DISCID=ac090d0d
DTITLE=Various Artist - Encyclopedia of Boogie Woogie
DYEAR=2002
DGENRE=Boogie Woogie
TTITLE0=Pinetop Smith - Pinetop's Boogie Woogie
TTITLE1=Cow Cow Davenport - Cow Cow Blues
TTITLE2=Meade Lux Lewis - Honky Tonk Train Blues
TTITLE3=Albert Ammons - Boogie Woogie Stomp
TTITLE4=Count Basie - Boogie Woogie
TTITLE5=Benny Goodman - Roll 'em
TTITLE6=Tommy Dorsey - Boogie Woogie
TTITLE7=Joe Turner and Pete Johnson - Roll 'em Pete
TTITLE8=Harry James and Albert Ammons - Woo Woo
TTITLE9=Earl Hines - Boogie Woogie On St. Louis Blues
TTITLE10=Woody Herman - Chip's Boogie Woogie
TTITLE11=Ella Fitzgerald - Cow Cow Boogie
TTITLE12=T-Bone Walker - T-Bone Boogie
EXTD=Fine Tune\nThe Gold Collection
EXTT0=
EXTT1=
EXTT2=
EXTT3=
EXTT4=
EXTT5=
EXTT6=
EXTT7=
EXTT8=
EXTT9=
EXTT10=
EXTT11=
EXTT12=
PLAYORDER=
